<?xml version="1.0" encoding="utf-8"?>
<!-- Generator: Adobe Illustrator 27.5.0, SVG Export Plug-In . SVG Version: 6.00 Build 0)  -->
<svg version="1.1" id="Capa_1" xmlns="http://www.w3.org/2000/svg" xmlns:xlink="http://www.w3.org/1999/xlink" x="0px" y="0px"
	 viewBox="0 0 1200 1200" style="enable-background:new 0 0 1200 1200;" xml:space="preserve">
<style type="text/css">
	.st0{fill:#FFFFFF;}
	.st1{fill:#00FF8D;}
</style>
<g>
	<path d="M600,1200L600,1200C268.63,1200,0,931.37,0,600v0C0,268.63,268.63,0,600,0h0c331.37,0,600,268.63,600,600v0
		C1200,931.37,931.37,1200,600,1200z"/>
	<g>
		<g>
			<path class="st0" d="M448.26,860.65c-39.39-20.68-68.19-52.42-86.4-95.25c-18.22-42.82-27.32-98.2-27.32-166.14
				c0-67.44,9.1-122.45,27.32-165.03c18.21-42.57,47.01-74.21,86.4-94.88c39.37-20.67,90.82-31.01,154.32-31.01
				c91.56,0,157.52,20.31,197.89,60.92c40.36,40.61,62.02,101.05,64.98,181.28l-180.91,17.72c-2.95-45.78-12.43-78.88-28.43-99.31
				c-16-20.42-42.21-30.65-78.64-30.65c-18.22,0-32.98,2.95-44.3,8.86c-11.33,51.2-16.99,107.8-16.99,169.83
				c0,50.21,8.24,87.02,24.74,110.39c16.49,23.39,44.92,35.08,85.28,35.08c16.24,0,30.28-2.22,42.09-6.65
				c6.39-24.61,11.32-53.9,14.77-87.87h180.17c-3.45,73.36-26.21,128.98-68.3,166.88c-42.09,37.91-106.21,56.86-192.35,56.86
				C539.09,891.66,487.64,881.33,448.26,860.65z"/>
		</g>
	</g>
	<g>
		<path class="st1" d="M905.72,642.04l28.09-28.86c3.4-3.49,9.31-1.91,10.51,2.82l9.9,39.04c0.86,3.4,4.36,5.42,7.74,4.47
			l38.76-10.95c4.69-1.32,9.02,3,7.69,7.69l-10.95,38.76c-0.95,3.38,1.07,6.87,4.47,7.74l39.04,9.9c4.72,1.2,6.31,7.11,2.82,10.51
			l-28.86,28.09c-2.51,2.45-2.51,6.49,0,8.93l28.86,28.09c3.49,3.4,1.91,9.31-2.82,10.51l-39.04,9.9c-3.4,0.86-5.42,4.36-4.47,7.74
			l10.95,38.76c1.33,4.69-3,9.02-7.69,7.69l-38.76-10.95c-3.38-0.95-6.87,1.07-7.74,4.47l-9.9,39.04c-1.2,4.72-7.11,6.31-10.51,2.82
			l-28.09-28.86c-2.45-2.51-6.49-2.51-8.93,0l-28.09,28.86c-3.4,3.49-9.31,1.91-10.51-2.82l-9.9-39.04
			c-0.86-3.4-4.36-5.42-7.74-4.47l-38.76,10.95c-4.69,1.33-9.02-3-7.69-7.69l10.95-38.76c0.95-3.38-1.07-6.87-4.47-7.74l-39.04-9.9
			c-4.72-1.2-6.31-7.11-2.82-10.51l28.86-28.09c2.51-2.45,2.51-6.49,0-8.93l-28.86-28.09c-3.49-3.4-1.91-9.31,2.82-10.51l39.04-9.9
			c3.4-0.86,5.42-4.36,4.47-7.74l-10.95-38.76c-1.33-4.69,3-9.02,7.69-7.69l38.76,10.95c3.38,0.95,6.87-1.07,7.74-4.47l9.9-39.04
			c1.2-4.72,7.11-6.31,10.51-2.82l28.09,28.86C899.23,644.56,903.27,644.56,905.72,642.04z"/>
		<path d="M959.58,753.72l-32.41-49.35c-1.17-1.78-3.5-2.38-5.38-1.34l-5.4,2.95c-1.74,0.95-2.55,3-1.92,4.89l12.68,37.81h-79.09
			c-1.91,0-3.57,1.33-3.99,3.19l-1.72,7.62c-0.27,1.21,0.02,2.49,0.8,3.46c0.78,0.97,1.95,1.53,3.2,1.53h77.11l-24.65,34.79
			c-1.29,1.83-0.88,4.37,0.95,5.68l4.42,3.19c0.72,0.52,1.56,0.78,2.39,0.78c1.03,0,2.05-0.39,2.84-1.15l49.35-47.63
			c0.6-0.58,1.01-1.33,1.17-2.14l0.24-1.22C960.38,755.71,960.17,754.61,959.58,753.72z"/>
	</g>
</g>
</svg>
